<?xml version="1.0"?>
<svg xmlns="http://www.w3.org/2000/svg" viewBox="0 0 512 512" width="512" height="512" fill="#fff">
  <g id="Outline">
    <path d="M112,384H32a16.019,16.019,0,0,0-16,16v48a16.019,16.019,0,0,0,16,16H53.754l-4,16H40v16h64V480H94.246l-4-16H112a16.019,16.019,0,0,0,16-16V400A16.019,16.019,0,0,0,112,384ZM77.754,480H66.246l4-16h3.508ZM112,448H32V400h80l.01,48Zm0-208H32a16.019,16.019,0,0,0-16,16v48a16.019,16.019,0,0,0,16,16H53.754l-4,16H40v16h64V336H94.246l-4-16H112a16.019,16.019,0,0,0,16-16V256A16.019,16.019,0,0,0,112,240ZM77.754,336H66.246l4-16h3.508ZM112,304H32V256h80l.01,48Zm368,80H400a16.019,16.019,0,0,0-16,16v48a16.019,16.019,0,0,0,16,16h21.754l-4,16H408v16h64V480h-9.754l-4-16H480a16.019,16.019,0,0,0,16-16V436H480v12H400V400h80v21h16V400A16.019,16.019,0,0,0,480,384Zm-38.246,80,4,16H434.246l4-16ZM480,232H400a16.019,16.019,0,0,0-16,16v48a16.019,16.019,0,0,0,16,16h21.754l-4,16H408v16h64V328h-9.754l-4-16H480a16.019,16.019,0,0,0,16-16V248A16.019,16.019,0,0,0,480,232Zm-34.246,96H434.246l4-16h3.508ZM480,296H400V248h80l.01,48ZM400,184V40a24.028,24.028,0,0,0-24-24H136a24.028,24.028,0,0,0-24,24V54h16V40a8.009,8.009,0,0,1,8-8H376a8.009,8.009,0,0,1,8,8v88H128V72H112V184a24.028,24.028,0,0,0,24,24H376A24.028,24.028,0,0,0,400,184Zm-16,0a8.009,8.009,0,0,1-8,8H136a8.009,8.009,0,0,1-8-8V144H384Zm-200-8H168V160h16Zm32,0H200V160h16Zm32,0H232V160h16Zm32,0H264V160h16Zm32,0H296V160h16Zm32,0H328V160h16ZM192,288H144V272h40V224h16v56A8,8,0,0,1,192,288Zm32-64h16V424a8,8,0,0,1-8,8H144V416h80Zm104,48h40v16H320a8,8,0,0,1-8-8V224h16ZM288,416h80v16H280a8,8,0,0,1-8-8V224h16ZM160,64H144V48h16ZM144,80h16v32H144Z" />
  </g>
</svg>