<svg id="Capa_1" enable-background="new 0 0 512 512" height="512" viewBox="0 0 512 512" width="512" xmlns="http://www.w3.org/2000/svg" fill="#fff">
  <g>
    <path d="m512 442.345v-370.868h-133.474l-122.526-71.477-122.526 71.477h-133.474v370.867h180.521v14.609c0 13.81-11.234 25.045-25.043 25.045h-49.478v30.002h300v-30.002h-49.478c-13.81 0-25.044-11.235-25.044-25.045v-14.609h180.522zm-359.47-329.75 88.47 51.611v113.363l-88.47-51.611zm118.47 51.611 88.471-51.611v113.363l-88.471 51.61zm73.701-77.728-88.701 51.745-88.701-51.745 88.701-51.745zm-222.171 15.001v141.711l133.47 77.862 133.47-77.862v-141.711h92.53v250.861h-452v-250.861zm-92.53 280.863h452v30.002h-452zm277.512 99.656h-103.025c3.856-7.517 6.034-16.031 6.034-25.045v-14.609h90.957v14.609c0 9.014 2.178 17.529 6.034 25.045z" />
  </g>
</svg>