<svg xmlns="http://www.w3.org/2000/svg" id="madri-logo" viewBox="0 0 1227 503">
   <defs>
      <g id="wifi">
         <circle cx=" 162" cy="26.5" r="3" />
         <path id="pequeno" d="m 156.74,23 -2.31,-3 c 5,-4 10.24,-4 15.24,0 l -2.35,3 c -3,-3 -7.58,-3 -10.58,0 z" />
         <path id="medio" d="m 152.12,17 -2.32,-3 c 6,-6 18.45,-6 24.45,0 l -2.31,3 c -4,-5 -15.82,-5 -19.82,0 z" />
         <path id="grande" d="M 147.5,11 145,7.77 C 156,-1 168,-1 178.87,8 l -2.32,3 C 167,3 157,3 147.5,11 Z" />
      </g>
      <path id="o" d="m 784.68573,502.69846 c -30.49871,0 -30.99986,-47.78222 0,-47.78222 30.64191,0 30.78509,47.71738 0,47.78222 z m 0,-40.90988 c -20.47566,0 -20.47566,34.10237 0,34.03754 20.40407,0 20.40407,-34.03754 0,-34.03754 z" />
   </defs>
   <g id="icone" transform="translate(175.20759,129.07836)">
      <path d="M -1.8742544,99.213101 H 84.792414 V 12.546436 H -1.8742544 Z" />
      <g id="red" fill="#ff0000">
         <path d="m -88.540919,185.87977 h -86.666671 v 86.66666 h 86.666671 z" />
         <path d="M -88.540919,99.213101 V 185.87977 H -1.8742544 V 99.213101 Z" />
         <path d="m -175.20759,12.546436 v 86.666665 h 86.666671 V 12.546436 Z" />
      </g>
   </g>
   <g id="madri">
      <path d="M 301.00222,141.60097 260,400.43746 h 27.22927 L 314.5377,223.36797 416.56837,400.51662 518.83651,223.36797 546.06578,400.51662 h 27.22931 L 533.9551,141.60097 416.64756,352.78623 Z" />
      <path d="m 665.51052,223.44714 c -51.05491,-0.55411 -97.36052,39.89405 -97.51883,86.59544 -0.47492,92.21545 118.01996,124.27319 175.72388,50.97578 v 39.49826 h 20.42197 V 223.76375 h -20.42197 v 39.33998 c -23.42984,-27.78337 -51.45068,-39.33998 -78.20505,-39.65659 z m -3.56196,24.14223 c 105.27601,-2.92872 103.69289,130.20979 0,131.71374 -95.38166,1.2665 -95.30251,-129.02246 0,-131.71374 z" />
      <path d="m 869.88847,224.5553 c -51.05491,-0.55407 -97.36052,39.97322 -97.51883,86.59544 -0.47492,92.29462 118.09911,124.2732 175.72389,50.97579 v 39.49826 h 20.50108 V 155.13646 h -20.50108 v 108.99631 c -23.42987,-27.7834 -51.45069,-39.34001 -78.20506,-39.57747 z m -3.4828,24.2214 c 105.19685,-3.00789 103.69291,130.13063 0,131.63458 -95.38166,1.34564 -95.38166,-129.02247 0,-131.63458 z" />
      <path d="M 982.20925,400.51662 V 223.36797 h 27.22935 v 20.42195 c 0,0 20.4219,-30.15799 68.0733,-16.54335 l -3.3245,13.61465 c -57.9415,-3.95776 -64.7488,16.6225 -64.7488,159.6554 z" />
      <path d="m 1098.013,223.36797 v 177.14865 h 27.2292 V 223.36797 Z" />
      <use href="#wifi" transform="matrix(6.8129412,0,0,7,8,-8)" />
   </g>
   <g id="solutions">
      <path d="m 750.60736,484.02644 c 0,22.17302 -32.50333,21.65435 -48.18224,13.22601 v -9.85468 c 10.59579,7.90968 37.80122,8.81735 37.80122,-3.24167 0,-15.23585 -40.80814,-1.556 -40.80814,-25.73886 0,-34.29686 45.60489,-18.34785 48.46862,-14.78201 l -0.71594,8.16901 c -10.23783,-9.46568 -38.58875,-10.11401 -38.37397,5.70534 0.14319,11.41067 41.73886,4.60317 41.81045,26.51686 z" />
      <use href="#o" />
      <path d="m 834.01347,502.63362 h -8.5196 v -63.60156 h 8.59119 z" />
      <path d="m 873.24656,502.63362 c -20.47567,0 -21.76434,-11.02168 -20.47567,-47.65255 h 6.80136 c 0,34.03754 0,40.84505 13.60271,40.84505 13.60272,0 13.60272,-6.80751 13.60272,-40.84505 h 6.87295 c 0,39.80771 0,47.65255 -20.40407,47.65255 z" />
      <path d="m 920.92765,502.63362 h -8.73438 v -44.34604 h -6.80135 v -6.48334 h 6.80135 v -13.09635 h 8.5196 v 13.16118 h 6.80135 v 6.48334 h -6.80135 z" />
      <path d="m 951.35477,502.63362 h -8.448 v -45.64271 h 8.448 z" />
      <use href="#wifi" transform="matrix(1.436,0,0,1.43,715,408)" />
      <use href="#o" x="206" />
      <path d="m 1028.1743,457.05574 h 8.5912 v 5.05701 a 25.845155,23.404857 0 0 1 16.6096,-6.15918 c 16.7528,0.12967 18.3279,10.11401 17.1108,46.68005 h -8.5196 c 0.358,-28.85086 0.5012,-38.51104 -9.5219,-38.70554 -10.4526,-0.12966 -11.3117,2.07467 -15.7505,4.66801 l 0.072,34.10237 h -8.448 z" />
      <path d="m 1125.3263,489.01861 c 0,16.01385 -22.1939,15.62485 -32.9329,9.53051 v -7.13168 c 7.1594,5.77018 25.7736,6.41851 25.7736,-2.26916 0.072,-11.02168 -27.9214,-1.16701 -27.9214,-18.60719 0,-24.76636 33.2193,-10.63268 33.2193,-10.63268 v 6.87234 c -7.0161,-6.8075 -26.8475,-8.29867 -26.7759,3.11201 0.1432,8.23384 28.5657,3.3065 28.6373,19.12585 z" />
   </g>
</svg>