<svg xmlns="http://www.w3.org/2000/svg" viewBox="0 0 1227 503">
  <defs>
    <g id="wifi">
      <circle cx="162" cy="26.5" r="3" />
      <path d="M156.7 23l-2.3-3c5-4 10.3-4 15.3 0l-2.4 3c-3-3-7.6-3-10.6 0z" />
      <path d="M152.1 17l-2.3-3c6-6 18.4-6 24.4 0l-2.3 3c-4-5-15.8-5-19.8 0z" />
      <path d="M147.5 11L145 7.8C156-1 168-1 178.9 8l-2.4 3c-9.5-8-19.5-8-29 0z" />
    </g>
  </defs>
  <path d="M173.3 228.3H260v-86.7h-86.7z" />
  <g fill="#ff0000">
    <path d="M86.7 315H0v86.6h86.7zM86.7 228.3V315h86.6v-86.7zM0 141.6v86.7h86.7v-86.7z" />
  </g>
  <path d="M301 141.6l-41 258.8h27.2l27.3-177 102 177.1 102.3-177.1 27.3 177.1h27.2L534 141.6 416.6 352.8zM665.5 223.4c-51-.5-97.3 40-97.5 86.6-.5 92.3 118 124.3 175.7 51v39.5h20.4V223.8h-20.4V263c-23.4-27.8-51.4-39.3-78.2-39.7zm-3.6 24.2c105.3-3 103.7 130.2 0 131.7-95.3 1.3-95.3-129 0-131.7zM869.9 224.6c-51-.6-97.4 40-97.5 86.6-.5 92.2 118 124.2 175.7 51v39.4h20.5V155.1H948v109c-23.4-27.8-51.5-39.3-78.2-39.5zm-3.5 24.2c105.2-3 103.7 130.1 0 131.6-95.4 1.4-95.4-129 0-131.6zM982.2 400.5V223.4h27.2v20.4s20.5-30.2 68.1-16.6l-3.3 13.7c-58-4-64.8 16.6-64.8 159.6zM1098 223.4v177.1h27.2V223.4z" />
  <use href="#wifi" transform="translate(8 -8.3) scale(6.81294)" />
  <g>
    <use href="#wifi" transform="matrix(1.43603 0 0 1.43603 714.7 408.4)" />
    <path d="M750.6 484c0 22.2-32.5 21.7-48.2 13.3v-9.9c10.6 8 37.8 8.8 37.8-3.2 0-15.3-40.8-1.6-40.8-25.8 0-34.3 45.6-18.3 48.5-14.8l-.7 8.2c-10.3-9.5-38.6-10.1-38.4 5.7.1 11.4 41.7 4.6 41.8 26.5zM784.7 502.7c-30.5 0-31-47.8 0-47.8 30.6 0 30.8 47.7 0 47.8zm0-41c-20.5 0-20.5 34.2 0 34.1 20.4 0 20.4-34 0-34zM834 502.6h-8.5V439h8.6zM873.2 502.6c-20.4 0-21.7-11-20.4-47.6h6.8c0 34 0 40.8 13.6 40.8s13.6-6.8 13.6-40.8h6.9c0 39.8 0 47.6-20.5 47.6zM921 502.6h-8.8v-44.3h-6.8v-6.5h6.8v-13h8.5v13h6.8v6.6h-6.8zM951.4 502.6h-8.5V457h8.5zM992 502.6c-30.4.1-31-47.7 0-47.7 30.7 0 30.9 47.7 0 47.7zm0-40.9c-20.4 0-20.4 34.1 0 34.1 20.5 0 20.5-34 0-34zM1028.2 457h8.6v5.1a25.8 23.4 0 0116.6-6.1c16.7 0 18.3 10 17 46.6h-8.4c.3-28.8.5-38.5-9.6-38.7-10.4-.1-11.3 2.1-15.7 4.7v34.1h-8.4zM1125.3 489c0 16-22.2 15.6-33 9.5v-7c7.3 5.7 25.9 6.3 25.9-2.4 0-11-28-1.1-28-18.6 0-24.7 33.3-10.6 33.3-10.6v6.9c-7-6.8-26.9-8.3-26.8 3 .1 8.3 28.6 3.4 28.6 19.2z" />
  </g>
</svg>